<?xml version="1.0" encoding="iso-8859-1"?>
<!-- Generator: Adobe Illustrator 19.0.0, SVG Export Plug-In . SVG Version: 6.00 Build 0)  -->
<svg version="1.1" id="Layer_1" xmlns="http://www.w3.org/2000/svg" xmlns:xlink="http://www.w3.org/1999/xlink" x="0px" y="0px"
	 viewBox="0 0 496.158 496.158" style="enable-background:new 0 0 496.158 496.158;" xml:space="preserve">
<path style="fill:#978874;" d="M248.082,0.003C111.07,0.003,0,111.061,0,248.085c0,137,111.07,248.07,248.082,248.07
	c137.006,0,248.076-111.07,248.076-248.07C496.158,111.061,385.088,0.003,248.082,0.003z"/>
<path style="fill:#FFFFFF;" d="M189.981,165.326v6.347c5.532,0,9.765,0.652,12.693,1.954c1.871,0.814,2.808,2.317,2.808,4.515
	c0,1.222-0.286,2.646-0.854,4.272l-40.034,109.849l-36.616-109.849c-0.408-1.465-0.61-2.764-0.61-3.906
	c0-2.358,0.935-3.985,2.807-4.881c2.766-1.302,6.916-1.954,12.45-1.954v-6.347H88.92v6.347c4.229,0,7.403,0.652,9.521,1.954
	c2.114,1.303,3.823,4.232,5.126,8.787l50.286,148.418h7.324l55.656-148.418c1.953-4.555,3.824-7.484,5.614-8.787
	c1.789-1.302,4.801-1.954,9.032-1.954v-6.347H189.981z"/>
<path style="fill:none;stroke:#FFFFFF;stroke-width:2;stroke-linecap:round;stroke-linejoin:round;stroke-miterlimit:10;" d="
	M189.981,165.326v6.347c5.532,0,9.765,0.652,12.693,1.954c1.871,0.814,2.808,2.317,2.808,4.515c0,1.222-0.286,2.646-0.854,4.272
	l-40.034,109.849l-36.616-109.849c-0.408-1.465-0.61-2.764-0.61-3.906c0-2.358,0.935-3.985,2.807-4.881
	c2.766-1.302,6.916-1.954,12.45-1.954v-6.347H88.92v6.347c4.229,0,7.403,0.652,9.521,1.954c2.114,1.303,3.823,4.232,5.126,8.787
	l50.286,148.418h7.324l55.656-148.418c1.953-4.555,3.824-7.484,5.614-8.787c1.789-1.302,4.801-1.954,9.032-1.954v-6.347H189.981z"/>
<path style="fill:#FFFFFF;" d="M278.593,173.627c2.115-1.302,5.939-1.954,11.474-1.954v-6.347h-53.704v6.347
	c5.532,0,9.356,0.652,11.473,1.954c2.115,1.303,3.174,4.232,3.174,8.787v132.307c0,3.582-1.059,6.104-3.174,7.568
	c-2.116,1.465-5.94,2.197-11.473,2.197v6.346h53.704v-6.346c-5.534,0-9.358-0.732-11.474-2.197
	c-2.117-1.465-3.174-3.986-3.174-7.568V182.414C275.419,177.859,276.475,174.93,278.593,173.627z"/>
<path style="fill:none;stroke:#FFFFFF;stroke-width:2;stroke-linecap:round;stroke-linejoin:round;stroke-miterlimit:10;" d="
	M278.593,173.627c2.115-1.302,5.939-1.954,11.474-1.954v-6.347h-53.704v6.347c5.532,0,9.356,0.652,11.473,1.954
	c2.115,1.303,3.174,4.232,3.174,8.787v132.307c0,3.582-1.059,6.104-3.174,7.568c-2.116,1.465-5.94,2.197-11.473,2.197v6.346h53.704
	v-6.346c-5.534,0-9.358-0.732-11.474-2.197c-2.117-1.465-3.174-3.986-3.174-7.568V182.414
	C275.419,177.859,276.475,174.93,278.593,173.627z"/>
<path style="fill:#FFFFFF;" d="M337.179,173.627c2.115-1.302,5.939-1.954,11.474-1.954v-6.347h-53.704v6.347
	c5.532,0,9.356,0.652,11.474,1.954c2.114,1.303,3.173,4.232,3.173,8.787v132.307c0,3.582-1.059,6.104-3.173,7.568
	c-2.117,1.465-5.941,2.197-11.474,2.197v6.346h53.704v-6.346c-5.534,0-9.358-0.732-11.474-2.197s-3.173-3.986-3.173-7.568V182.414
	C334.006,177.859,335.062,174.93,337.179,173.627z"/>
<path style="fill:none;stroke:#FFFFFF;stroke-width:2;stroke-linecap:round;stroke-linejoin:round;stroke-miterlimit:10;" d="
	M337.179,173.627c2.115-1.302,5.939-1.954,11.474-1.954v-6.347h-53.704v6.347c5.532,0,9.356,0.652,11.474,1.954
	c2.114,1.303,3.173,4.232,3.173,8.787v132.307c0,3.582-1.059,6.104-3.173,7.568c-2.117,1.465-5.941,2.197-11.474,2.197v6.346h53.704
	v-6.346c-5.534,0-9.358-0.732-11.474-2.197s-3.173-3.986-3.173-7.568V182.414C334.006,177.859,335.062,174.93,337.179,173.627z"/>
<path style="fill:#FFFFFF;" d="M395.766,173.627c2.114-1.302,5.938-1.954,11.473-1.954v-6.347h-53.704v6.347
	c5.532,0,9.356,0.652,11.474,1.954c2.114,1.303,3.174,4.232,3.174,8.787v132.307c0,3.582-1.06,6.104-3.174,7.568
	c-2.117,1.465-5.941,2.197-11.474,2.197v6.346h53.704v-6.346c-5.534,0-9.358-0.732-11.473-2.197
	c-2.117-1.465-3.174-3.986-3.174-7.568V182.414C392.592,177.859,393.648,174.93,395.766,173.627z"/>
<path style="fill:none;stroke:#FFFFFF;stroke-width:2;stroke-linecap:round;stroke-linejoin:round;stroke-miterlimit:10;" d="
	M395.766,173.627c2.114-1.302,5.938-1.954,11.473-1.954v-6.347h-53.704v6.347c5.532,0,9.356,0.652,11.474,1.954
	c2.114,1.303,3.174,4.232,3.174,8.787v132.307c0,3.582-1.06,6.104-3.174,7.568c-2.117,1.465-5.941,2.197-11.474,2.197v6.346h53.704
	v-6.346c-5.534,0-9.358-0.732-11.473-2.197c-2.117-1.465-3.174-3.986-3.174-7.568V182.414
	C392.592,177.859,393.648,174.93,395.766,173.627z"/>
<g>
</g>
<g>
</g>
<g>
</g>
<g>
</g>
<g>
</g>
<g>
</g>
<g>
</g>
<g>
</g>
<g>
</g>
<g>
</g>
<g>
</g>
<g>
</g>
<g>
</g>
<g>
</g>
<g>
</g>
</svg>
