<?xml version="1.0" encoding="iso-8859-1"?>
<!-- Generator: Adobe Illustrator 19.0.0, SVG Export Plug-In . SVG Version: 6.00 Build 0)  -->
<svg version="1.1" id="Layer_1" xmlns="http://www.w3.org/2000/svg" xmlns:xlink="http://www.w3.org/1999/xlink" x="0px" y="0px"
	 viewBox="0 0 496.158 496.158" style="enable-background:new 0 0 496.158 496.158;" xml:space="preserve">
<path style="fill:#978874;" d="M248.082,0.003C111.07,0.003,0,111.061,0,248.085c0,137,111.07,248.07,248.082,248.07
	c137.006,0,248.076-111.07,248.076-248.07C496.158,111.061,385.088,0.003,248.082,0.003z"/>
<path style="fill:#FFFFFF;" d="M189.738,173.627c2.114-1.302,5.938-1.954,11.473-1.954v-6.347h-53.704v6.347
	c5.532,0,9.356,0.652,11.473,1.954c2.115,1.303,3.174,4.232,3.174,8.787v132.307c0,3.582-1.059,6.103-3.174,7.568
	c-2.116,1.465-5.94,2.197-11.473,2.197v6.346h53.704v-6.346c-5.534,0-9.358-0.732-11.473-2.197
	c-2.117-1.466-3.174-3.986-3.174-7.568V182.414C186.564,177.859,187.621,174.93,189.738,173.627z"/>
<path style="fill:none;stroke:#FFFFFF;stroke-width:2;stroke-linecap:round;stroke-linejoin:round;stroke-miterlimit:10;" d="
	M189.738,173.627c2.114-1.302,5.938-1.954,11.473-1.954v-6.347h-53.704v6.347c5.532,0,9.356,0.652,11.473,1.954
	c2.115,1.303,3.174,4.232,3.174,8.787v132.307c0,3.582-1.059,6.103-3.174,7.568c-2.116,1.465-5.94,2.197-11.473,2.197v6.346h53.704
	v-6.346c-5.534,0-9.358-0.732-11.473-2.197c-2.117-1.466-3.174-3.986-3.174-7.568V182.414
	C186.564,177.859,187.621,174.93,189.738,173.627z"/>
<path style="fill:#FFFFFF;" d="M341.084,173.87c1.79-1.465,4.313-2.197,7.567-2.197v-6.347h-41.498v6.347
	c6.183,0,10.903,0.896,14.158,2.687c1.709,0.976,2.563,2.156,2.563,3.539c0,1.304-0.692,2.807-2.075,4.516L280.3,236.12
	l-35.151-53.705c-1.059-1.788-1.587-3.335-1.587-4.639c0-1.544,0.772-2.764,2.319-3.662c2.766-1.624,7.403-2.44,13.914-2.44v-6.347
	h-53.704v6.347c3.254,0,5.859,0.732,7.812,2.197c1.953,1.465,4.23,4.314,6.835,8.544l45.893,71.279l-45.893,61.027
	c-2.929,3.257-5.208,5.698-6.835,7.324c-1.628,1.629-4.232,2.441-7.812,2.441v6.346h41.499v-6.346
	c-7.487,0-12.37-0.813-14.646-2.441c-1.141-0.813-1.709-1.831-1.709-3.053c0-1.219,0.568-2.643,1.709-4.271l40.033-52.238
	l36.617,52.238c1.057,1.465,1.586,2.768,1.586,3.905c0,1.386-0.774,2.525-2.318,3.419c-2.768,1.629-7.405,2.441-13.915,2.441v6.346
	h53.704v-6.346c-3.581,0-6.267-0.895-8.056-2.687c-1.79-1.788-3.987-4.149-6.591-7.079l-47.357-69.814l47.357-62.492
	C336.935,178.184,339.294,175.335,341.084,173.87z"/>
<path style="fill:none;stroke:#FFFFFF;stroke-width:2;stroke-linecap:round;stroke-linejoin:round;stroke-miterlimit:10;" d="
	M341.084,173.87c1.79-1.465,4.313-2.197,7.567-2.197v-6.347h-41.498v6.347c6.183,0,10.903,0.896,14.158,2.687
	c1.709,0.976,2.563,2.156,2.563,3.539c0,1.304-0.692,2.807-2.075,4.516L280.3,236.12l-35.151-53.705
	c-1.059-1.788-1.587-3.335-1.587-4.639c0-1.544,0.772-2.764,2.319-3.662c2.766-1.624,7.403-2.44,13.914-2.44v-6.347h-53.704v6.347
	c3.254,0,5.859,0.732,7.812,2.197c1.953,1.465,4.23,4.314,6.835,8.544l45.893,71.279l-45.893,61.027
	c-2.929,3.257-5.208,5.698-6.835,7.324c-1.628,1.629-4.232,2.441-7.812,2.441v6.346h41.499v-6.346
	c-7.487,0-12.37-0.813-14.646-2.441c-1.141-0.813-1.709-1.831-1.709-3.053c0-1.219,0.568-2.643,1.709-4.271l40.033-52.238
	l36.617,52.238c1.057,1.465,1.586,2.768,1.586,3.905c0,1.386-0.774,2.525-2.318,3.419c-2.768,1.629-7.405,2.441-13.915,2.441v6.346
	h53.704v-6.346c-3.581,0-6.267-0.895-8.056-2.687c-1.79-1.788-3.987-4.149-6.591-7.079l-47.357-69.814l47.357-62.492
	C336.935,178.184,339.294,175.335,341.084,173.87z"/>
<g>
</g>
<g>
</g>
<g>
</g>
<g>
</g>
<g>
</g>
<g>
</g>
<g>
</g>
<g>
</g>
<g>
</g>
<g>
</g>
<g>
</g>
<g>
</g>
<g>
</g>
<g>
</g>
<g>
</g>
</svg>
